<svg xmlns="http://www.w3.org/2000/svg" xmlns:xlink="http://www.w3.org/1999/xlink" xmlns:svgjs="http://svgjs.com/svgjs" viewBox="0 0 568.79 203.08"><g class="signage-logo" opacity="1"><defs id="SvgjsDefs1019"><linearGradient id="SvgjsLinearGradientv-7k3RCYmr" gradientUnits="userSpaceOnUse" x1="8.911011695861829" y1="91.11879539489746" x2="91.17615222930908" y2="8.853654861450194"><stop id="SvgjsStop1022" stop-color="#74c1fc" offset="0.05"></stop><stop id="SvgjsStop1023" stop-color="#2e82c2" offset="0.95"></stop></linearGradient></defs><g id="SvgjsG1020" transform="scale(1.2311688311688311)" opacity="1"><g id="SvgjsG1024" class="C7O_lC-cu" transform="translate(-19.97338751916226, -14.485422492500875) scale(1.9397392819300965)" fill="url(#SvgjsLinearGradientv-7k3RCYmr)"><path d="M74.715 22.215c4.035-.785 6.68-4.68 5.894-8.715s-4.68-6.68-8.714-5.894c-4.035.785-6.68 4.68-5.895 8.715.785 4.035 4.68 6.68 8.715 5.894zm13.64 21.64l-8.93-5.75C77.461 35.675 67.82 23.89 67.82 23.89c-.965-1.145-2.105-1.535-3.214-1.5-.465-.145-1-.215-1.57-.145l-15.93 1.75h-.286c-.894.145-1.715.57-2.32 1.32l-8.785 11.356c-.43.535-.57 1.105-.606 1.68-.644-.18-1.285-.32-1.965-.32a6.948 6.948 0 0 0-6.394 4.214l-5.07-2.356c-1.68-.785-3.68-.035-4.465 1.645l-6.606 14.18c-.785 1.68-.035 3.68 1.645 4.465l22.215 10.32c1.68.785 3.68.035 4.464-1.645l6.606-14.18c.785-1.68.035-3.68-1.645-4.465l-4.5-2.105c.465-.93.75-1.965.75-3.07 0-1.32-.394-2.536-1-3.57a3.053 3.053 0 0 0 1.145-.715l9.105-8.75c1.215-.145 3.145-.356 5.215-.57l-2.144 21.104s0 .215-.035.32V68.57l-9.75 13.5c-.965 1.32-.856 3.18.32 4.355 1.32 1.32 3.465 1.356 4.785 0l13.32-13.105c.785-.75 1.18-1.894 1.18-3.035l.965-12.32 10.855 12.57c.965 4.25 4.394 19.215 4.394 19.215 1.106 4.465 7.785 3.144 7.07-1.395L82.14 67.75c.716-.07-12.394-19.07-12.644-19.645-.18-.285-.395-.5-.606-.715l1.57-7.285 3 3.645.215.25c0 .68 11.25 4.855 11.895 5.25 3.356 1.43 5.93-3.465 2.82-5.43zm-58.75-.25c.57-1.355 1.895-2.32 3.465-2.32 2.07 0 3.75 1.68 3.75 3.75 0 .644-.18 1.18-.465 1.714z"></path></g><g id="SvgjsG1025" class="text" transform="translate(306.51316777927684, 74.25806006006187) scale(1)" fill="#070707"><path d="M-94.19 -9.04L-90.55 0L-81.02 0L-97.71 -42.79L-104.33 -42.79L-120.96 0L-111.97 0L-108.52 -9.04ZM-106.03 -16.14L-102.81 -24.94L-101.35 -31.74L-101.05 -31.74L-99.59 -25L-96.32 -16.14Z M-65.61 -22.15L-48.19 0.3L-41.69 0.3L-41.69 -42.48L-50.19 -42.48L-50.19 -20.21L-49.22 -13.96L-49.58 -13.96L-53.04 -20.15L-70.58 -42.79L-77.08 -42.79L-77.08 0L-68.58 0L-68.58 -22.09L-69.55 -28.52L-69.25 -28.52Z M-17.66 -22.33L-17.66 -16.87L-7.59 -15.9L-7.59 -8.56C-8.36 -8.03 -9.3 -7.65 -10.41 -7.4C-11.52 -7.16 -12.62 -7.04 -13.72 -7.04C-15.33 -7.04 -16.87 -7.3 -18.33 -7.83C-19.79 -8.36 -21.07 -9.19 -22.18 -10.35C-23.3 -11.5 -24.18 -12.97 -24.82 -14.75C-25.47 -16.53 -25.79 -18.67 -25.79 -21.18C-25.79 -23.77 -25.47 -25.98 -24.82 -27.8C-24.18 -29.62 -23.26 -31.09 -22.09 -32.23C-20.92 -33.36 -19.54 -34.18 -17.96 -34.68C-16.39 -35.19 -14.65 -35.44 -12.75 -35.44C-10.68 -35.44 -8.96 -35.32 -7.59 -35.08C-6.21 -34.84 -4.98 -34.53 -3.88 -34.17L-2 -41.63C-3.14 -42 -4.7 -42.37 -6.71 -42.76C-8.71 -43.14 -11.03 -43.33 -13.66 -43.33C-16.2 -43.33 -18.76 -42.94 -21.33 -42.15C-23.9 -41.36 -26.23 -40.09 -28.31 -38.33C-30.4 -36.57 -32.09 -34.28 -33.38 -31.47C-34.67 -28.66 -35.32 -25.25 -35.32 -21.24C-35.32 -17.4 -34.79 -14.08 -33.71 -11.29C-32.64 -8.5 -31.16 -6.2 -29.28 -4.4C-27.4 -2.6 -25.2 -1.27 -22.67 -0.42C-20.14 0.42 -17.42 0.85 -14.51 0.85C-13.25 0.85 -11.98 0.77 -10.68 0.61C-9.39 0.45 -8.12 0.19 -6.89 -0.15C-5.65 -0.5 -4.48 -0.92 -3.37 -1.43C-2.26 -1.93 -1.23 -2.55 -0.3 -3.28L-0.3 -22.33Z M4.79 -21.24C4.79 -17.96 5.2 -14.97 6.01 -12.26C6.82 -9.55 8.04 -7.22 9.68 -5.28C11.32 -3.34 13.36 -1.83 15.81 -0.76C18.26 0.31 21.12 0.85 24.4 0.85C27.43 0.85 30.16 0.35 32.59 -0.64C35.02 -1.63 37.08 -3.06 38.78 -4.95C40.48 -6.83 41.79 -9.14 42.7 -11.9C43.61 -14.65 44.06 -17.76 44.06 -21.24C44.06 -24.52 43.65 -27.51 42.82 -30.22C41.99 -32.93 40.75 -35.26 39.12 -37.2C37.48 -39.15 35.43 -40.65 32.99 -41.72C30.54 -42.8 27.68 -43.33 24.4 -43.33C21.32 -43.33 18.57 -42.84 16.14 -41.85C13.72 -40.86 11.66 -39.42 9.98 -37.54C8.3 -35.66 7.02 -33.34 6.13 -30.59C5.24 -27.84 4.79 -24.72 4.79 -21.24ZM14.32 -21.24C14.32 -26.18 15.21 -29.78 16.99 -32.04C18.77 -34.31 21.24 -35.44 24.4 -35.44C26.22 -35.44 27.77 -35.09 29.04 -34.38C30.32 -33.67 31.37 -32.68 32.2 -31.41C33.03 -30.13 33.62 -28.63 33.99 -26.89C34.35 -25.15 34.53 -23.26 34.53 -21.24C34.53 -16.14 33.64 -12.5 31.86 -10.32C30.08 -8.13 27.59 -7.04 24.4 -7.04C22.66 -7.04 21.15 -7.38 19.88 -8.07C18.6 -8.76 17.56 -9.73 16.75 -10.99C15.94 -12.24 15.33 -13.74 14.93 -15.48C14.53 -17.22 14.32 -19.14 14.32 -21.24Z M79.69 0L79.69 -7.89L59.42 -7.89L59.42 -42.48L50.43 -42.48L50.43 0Z M107.79 -9.04L111.43 0L120.96 0L104.27 -42.79L97.65 -42.79L81.02 0L90 0L93.46 -9.04ZM95.95 -16.14L99.17 -24.94L100.63 -31.74L100.93 -31.74L102.39 -25L105.66 -16.14Z"></path></g><g id="SvgjsG1026" class="text" transform="translate(323.0131754086714, 133.16864716293273) scale(1)" fill="#2677b6"><path d="M-137.46 -42.48L-137.46 0L-109.79 0L-109.79 -7.89L-128.48 -7.89L-128.48 -17.48L-111.79 -17.48L-111.79 -25.37L-128.48 -25.37L-128.48 -34.59L-110.09 -34.59L-110.09 -42.48Z M-67.31 -21.3L-67.31 0L-58.32 0L-58.32 -42.48L-66.4 -42.48L-78.11 -23L-80.11 -18.21L-80.42 -18.21L-82.72 -22.88L-94.98 -42.48L-103.11 -42.48L-103.11 0L-94.62 0L-94.62 -21.36L-95.89 -30.04L-95.53 -30.04L-92.67 -23.49L-82.24 -7.59L-79.44 -7.59L-69.61 -23.43L-66.7 -30.1L-66.34 -30.1Z M-50.43 -42.06L-50.43 0L-41.45 0L-41.45 -14.32C-41.21 -14.28 -40.84 -14.24 -40.36 -14.2C-39.87 -14.16 -39.36 -14.13 -38.81 -14.11C-38.27 -14.09 -37.75 -14.08 -37.26 -14.08L-36.23 -14.08C-33.97 -14.08 -31.76 -14.35 -29.62 -14.9C-27.47 -15.45 -25.56 -16.31 -23.88 -17.48C-22.2 -18.65 -20.86 -20.18 -19.85 -22.06C-18.83 -23.94 -18.33 -26.22 -18.33 -28.89C-18.33 -31.92 -18.92 -34.36 -20.09 -36.2C-21.26 -38.04 -22.77 -39.48 -24.61 -40.51C-26.45 -41.54 -28.52 -42.23 -30.83 -42.57C-33.14 -42.92 -35.42 -43.09 -37.69 -43.09C-39.91 -43.09 -42.14 -43 -44.37 -42.82C-46.59 -42.64 -48.61 -42.38 -50.43 -42.06ZM-37.08 -35.2C-35.95 -35.2 -34.83 -35.12 -33.71 -34.96C-32.6 -34.8 -31.61 -34.49 -30.74 -34.05C-29.87 -33.6 -29.17 -32.99 -28.65 -32.2C-28.12 -31.41 -27.86 -30.37 -27.86 -29.07C-27.86 -27.53 -28.14 -26.31 -28.71 -25.4C-29.27 -24.49 -30.01 -23.77 -30.92 -23.24C-31.83 -22.72 -32.87 -22.37 -34.05 -22.21C-35.22 -22.05 -36.39 -21.97 -37.57 -21.97C-37.77 -21.97 -38.04 -21.98 -38.39 -22C-38.73 -22.02 -39.11 -22.04 -39.51 -22.06C-39.91 -22.08 -40.3 -22.11 -40.66 -22.15C-41.03 -22.19 -41.29 -22.23 -41.45 -22.27L-41.45 -34.9C-40.97 -35.02 -40.33 -35.1 -39.54 -35.14C-38.75 -35.18 -37.93 -35.2 -37.08 -35.2Z M-12.81 -42.06L-12.81 0L-3.82 0L-3.82 -17.18L0.91 -16.45L11.47 0L21.91 0L11.29 -16.08L8.07 -17.96C11.11 -18.77 13.48 -20.3 15.2 -22.55C16.92 -24.79 17.78 -27.65 17.78 -31.13C17.78 -33.48 17.28 -35.43 16.27 -36.99C15.25 -38.55 13.93 -39.77 12.29 -40.66C10.65 -41.55 8.79 -42.18 6.71 -42.54C4.62 -42.91 2.51 -43.09 0.36 -43.09C-0.57 -43.09 -1.59 -43.07 -2.7 -43.03C-3.81 -42.99 -4.96 -42.93 -6.13 -42.85C-7.3 -42.77 -8.47 -42.66 -9.62 -42.51C-10.77 -42.37 -11.83 -42.22 -12.81 -42.06ZM0.97 -35.2C3.32 -35.2 5.12 -34.74 6.37 -33.8C7.63 -32.87 8.25 -31.52 8.25 -29.74C8.25 -27.35 7.52 -25.67 6.04 -24.7C4.56 -23.73 2.55 -23.24 0 -23.24L-3.82 -23.24L-3.82 -34.96C-3.3 -35.08 -2.6 -35.15 -1.73 -35.17C-0.86 -35.19 0.04 -35.2 0.97 -35.2Z M26.76 -42.48L26.76 0L54.44 0L54.44 -7.89L35.75 -7.89L35.75 -17.48L52.44 -17.48L52.44 -25.37L35.75 -25.37L35.75 -34.59L54.14 -34.59L54.14 -42.48Z M77.26 -22.33L77.26 -16.87L87.33 -15.9L87.33 -8.56C86.57 -8.03 85.62 -7.65 84.51 -7.4C83.4 -7.16 82.3 -7.04 81.2 -7.04C79.59 -7.04 78.05 -7.3 76.59 -7.83C75.14 -8.36 73.85 -9.19 72.74 -10.35C71.63 -11.5 70.75 -12.97 70.1 -14.75C69.45 -16.53 69.13 -18.67 69.13 -21.18C69.13 -23.77 69.45 -25.98 70.1 -27.8C70.75 -29.62 71.66 -31.09 72.83 -32.23C74 -33.36 75.38 -34.18 76.96 -34.68C78.53 -35.19 80.27 -35.44 82.18 -35.44C84.24 -35.44 85.96 -35.32 87.33 -35.08C88.71 -34.84 89.94 -34.53 91.04 -34.17L92.92 -41.63C91.78 -42 90.22 -42.37 88.21 -42.76C86.21 -43.14 83.89 -43.33 81.27 -43.33C78.72 -43.33 76.16 -42.94 73.59 -42.15C71.02 -41.36 68.69 -40.09 66.61 -38.33C64.52 -36.57 62.84 -34.28 61.54 -31.47C60.25 -28.66 59.6 -25.25 59.6 -21.24C59.6 -17.4 60.13 -14.08 61.21 -11.29C62.28 -8.5 63.76 -6.2 65.64 -4.4C67.52 -2.6 69.72 -1.27 72.25 -0.42C74.78 0.42 77.5 0.85 80.42 0.85C81.67 0.85 82.94 0.77 84.24 0.61C85.53 0.45 86.8 0.19 88.03 -0.15C89.27 -0.5 90.44 -0.92 91.55 -1.43C92.66 -1.93 93.69 -2.55 94.62 -3.28L94.62 -22.33Z M99.72 -21.24C99.72 -17.96 100.12 -14.97 100.93 -12.26C101.74 -9.55 102.96 -7.22 104.6 -5.28C106.24 -3.34 108.28 -1.83 110.73 -0.76C113.18 0.31 116.04 0.85 119.32 0.85C122.35 0.85 125.08 0.35 127.51 -0.64C129.94 -1.63 132 -3.06 133.7 -4.95C135.4 -6.83 136.71 -9.14 137.62 -11.9C138.53 -14.65 138.98 -17.76 138.98 -21.24C138.98 -24.52 138.57 -27.51 137.74 -30.22C136.91 -32.93 135.67 -35.26 134.04 -37.2C132.4 -39.15 130.35 -40.65 127.91 -41.72C125.46 -42.8 122.6 -43.33 119.32 -43.33C116.24 -43.33 113.49 -42.84 111.06 -41.85C108.64 -40.86 106.58 -39.42 104.9 -37.54C103.23 -35.66 101.94 -33.34 101.05 -30.59C100.16 -27.84 99.72 -24.72 99.72 -21.24ZM109.24 -21.24C109.24 -26.18 110.13 -29.78 111.91 -32.04C113.69 -34.31 116.16 -35.44 119.32 -35.44C121.14 -35.44 122.69 -35.09 123.96 -34.38C125.24 -33.67 126.29 -32.68 127.12 -31.41C127.95 -30.13 128.54 -28.63 128.91 -26.89C129.27 -25.15 129.45 -23.26 129.45 -21.24C129.45 -16.14 128.56 -12.5 126.78 -10.32C125 -8.13 122.51 -7.04 119.32 -7.04C117.58 -7.04 116.07 -7.38 114.8 -8.07C113.52 -8.76 112.48 -9.73 111.67 -10.99C110.86 -12.24 110.26 -13.74 109.85 -15.48C109.45 -17.22 109.24 -19.14 109.24 -21.24Z"></path></g></g></g></svg>